<?xml version="1.0" encoding="UTF-8" standalone="no"?><!DOCTYPE svg PUBLIC "-//W3C//DTD SVG 1.1//EN" "http://www.w3.org/Graphics/SVG/1.1/DTD/svg11.dtd"><svg width="100%" height="100%" viewBox="0 0 2550 3300" version="1.1" xmlns="http://www.w3.org/2000/svg" xmlns:xlink="http://www.w3.org/1999/xlink" xml:space="preserve" xmlns:serif="http://www.serif.com/" style="fill-rule:evenodd;clip-rule:evenodd;stroke-linejoin:round;stroke-miterlimit:2;"><g><path d="M1265.89,2169.011c182.383,0 549.179,9.663 549.179,21.579c0,11.921 -288.485,43.208 -540.069,38.883c-182.352,-3.135 -356.64,-26.963 -356.64,-38.883c0,-11.917 165.15,-21.579 347.529,-21.579Z" style="fill:#c8cac9;"/><path d="M983.869,1462.152c27.258,-2.062 55.2,-4.6 83.454,-7.192c23.8,53.713 101.417,41.142 125.208,-10.442c38.104,-2.483 75.858,-3.967 112.421,-3.442c86.825,1.258 118.096,15.313 169.467,45.754c55.646,32.975 99.85,75 99.85,75l-27.942,29.546c0,0 -63.433,-52.9 -136.263,-46.258c-72.825,6.642 -86.104,87.479 -87.021,106.025l-134.658,-4.575c-9.858,-70.304 -83.388,-103.554 -113.146,-36.171l-88.379,2.046l-2.992,-150.292Zm211.85,249.575l133.512,0l0,260.617l192.592,0c96.867,0 160.892,-69.404 160.017,-165.437l0,-434.4l-419.729,-351.371l-442.217,350.617l-84.963,-103.512l527.179,-418.371l552.958,460.504l0,523.575c0,141.758 -144.262,269.721 -280.992,269.721l-338.242,0l-0.117,-391.942Z" style="fill:#16412a;stroke:#4d4d4d;stroke-width:2.92px;"/></g></svg>